<svg xmlns="http://www.w3.org/2000/svg" xmlns:xlink="http://www.w3.org/1999/xlink" version="1.1" id="Layer_1" x="0px" y="0px" width="100%" viewBox="0 0 1024 1024" enable-background="new 0 0 1024 1024" xml:space="preserve">
<path fill="#ffffff" opacity="1.000000" stroke="none" d=" M131.982849,586.964539   C129.069733,580.317200 127.885857,573.237793 122.188713,567.603760   C118.439667,574.960876 122.927452,581.893982 122.569977,589.049316   C120.063766,588.409546 120.314041,586.546265 119.998703,585.063293   C116.880737,570.400146 115.093468,555.541931 113.816299,540.630798   C111.248009,510.645660 113.020958,480.841217 117.431709,451.100739   C126.463547,390.201630 149.043655,334.731323 183.994217,284.243774   C215.031143,239.409668 253.845581,202.590744 299.880737,173.390778   C333.307068,152.188553 369.218292,136.473007 407.387604,126.207466   C432.119080,119.555992 457.347748,115.523079 482.965973,113.429871   C505.155334,111.616821 527.266052,111.665405 549.291931,113.871101   C634.432495,122.397125 709.958618,153.875977 774.874084,209.976715   C825.794922,253.983093 863.143677,307.548798 887.347839,370.339417   C896.484741,394.042328 902.806335,418.484863 907.306885,443.438721   C911.957825,469.227142 914.161682,495.208496 913.285461,521.415894   C912.355286,549.237610 909.063232,576.717834 902.863708,603.929810   C889.574585,662.260620 864.179077,714.741394 827.141052,761.496582   C785.523560,814.032715 734.013245,853.959473 672.391479,880.728394   C649.869873,890.511902 626.720520,898.317810 602.795837,903.610107   C577.754150,909.149475 552.417480,912.627319 526.688538,913.422668   C504.155792,914.119263 481.741302,913.208679 459.457947,910.187683   C417.099091,904.445007 376.543915,892.461365 338.126251,873.576050   C271.862213,841.002136 218.334686,793.909729 177.832382,732.171021   C162.552826,708.880005 149.591309,684.337585 140.355377,657.955261   C139.971619,656.858948 139.595520,655.758057 139.282120,654.640625   C139.204880,654.365295 139.388321,654.016724 139.544586,653.243347   C141.714203,654.280273 142.751404,656.154236 143.393417,658.019836   C145.837158,665.120972 150.109329,670.366638 157.151047,673.435120   C160.131271,674.733765 161.625107,677.762878 162.884354,680.724304   C165.047333,685.811279 167.652542,690.592590 171.876999,694.346313   C178.018997,699.803772 181.316269,707.686768 187.525864,713.054749   C194.617371,719.184937 198.970795,727.739136 206.197281,733.720337   C208.752609,735.835388 211.360565,737.732910 214.912979,737.522644   C216.162354,734.995483 214.528214,733.548096 213.391861,732.001953   C204.616348,720.061768 195.848083,708.116150 187.024124,696.211792   C168.346863,671.014465 154.337509,643.283630 142.600845,614.330017   C138.973694,605.382019 135.621231,596.322693 131.982849,586.964539  M171.225204,587.477173   C175.005600,604.560120 179.794006,621.352661 186.217316,637.634399   C219.275879,721.431152 275.720032,784.341675 355.893738,825.334290   C398.868225,847.307190 444.649780,859.790527 493.158813,862.300659   C527.196350,864.061890 560.743225,861.936157 593.755432,853.549255   C697.974976,827.071594 775.242432,766.229858 825.377930,671.064514   C839.049927,645.112732 848.069397,617.437622 855.239563,589.095703   C855.827698,586.771240 855.715210,583.905334 858.583374,582.058411   C859.011108,583.510254 859.399353,584.432312 859.545349,585.391174   C860.256348,590.062073 861.797485,593.460205 867.657471,592.005127   C869.827515,591.466248 870.354126,593.581665 870.707214,595.198608   C871.715149,599.814941 870.499634,603.886047 866.846375,607.385315   C869.810974,608.312866 872.105896,611.119629 874.696228,609.230530   C877.236267,607.378052 876.507812,604.119690 876.173401,601.306885   C876.035828,600.149719 875.761353,599.008301 875.636414,597.850281   C875.391968,595.584045 876.282349,593.566162 878.464905,593.166992   C884.393372,592.082642 885.125366,587.595703 886.052185,582.885742   C888.182739,572.058594 886.373291,560.430420 892.611450,550.416992   C892.993103,549.804321 892.888062,548.752808 892.730774,547.960876   C891.201782,540.262817 893.073242,532.709045 893.601501,525.095764   C894.572388,511.103241 894.518433,497.193390 890.230652,483.606323   C889.025574,479.787689 888.081543,475.799744 889.964600,471.910400   C890.823914,470.135529 892.500793,468.725006 892.681335,466.638336   C893.400391,458.327545 893.784607,449.961151 892.134644,441.758789   C888.501526,423.697571 881.750305,406.708405 873.814148,390.136475   C855.088013,351.033600 831.331970,315.551544 799.264343,286.017395   C797.625122,284.507721 796.856812,281.641571 793.409668,281.788330   C794.478149,285.665283 797.224976,288.078857 798.450867,291.366608   C801.064697,298.376740 804.818420,305.084839 808.723633,311.231262   C816.434082,323.366638 822.295105,336.362366 828.744263,349.059174   C838.308899,367.889526 847.319397,387.041229 853.148254,407.461548   C854.649536,412.721100 856.585571,418.076782 856.765869,423.440613   C857.025330,431.158142 857.941162,438.637482 859.597168,446.159027   C860.359985,449.623474 861.784119,453.476562 859.530640,458.036133   C856.351257,443.012848 853.115845,428.965698 848.986877,415.108002   C844.847351,401.214294 840.327271,387.491272 834.465149,374.240540   C803.654053,304.595001 755.658875,250.008224 690.071472,211.323944   C630.095276,175.949173 565.155579,160.384781 495.482849,163.897659   C457.165466,165.829605 420.286652,173.757172 384.751587,187.855515   C326.651245,210.906464 277.977600,247.037720 239.177856,295.953888   C193.009827,354.159515 168.148071,420.824097 163.495361,494.878204   C161.555496,525.753967 164.483902,556.397461 171.225204,587.477173  z"/>
<path fill="#ffffff" opacity="1.000000" stroke="none" d=" M529.939331,570.338989   C515.306152,570.865112 501.172791,570.973206 487.332855,567.254639   C470.800079,562.812561 458.637268,553.626526 453.649963,536.457581   C452.510956,532.536438 452.897858,530.599426 457.546448,530.412354   C465.194427,530.104675 472.832153,529.433044 480.457916,528.736511   C483.434113,528.464661 485.065430,529.486267 486.075867,532.315613   C490.247894,543.997681 499.399323,548.579224 511.035156,549.844360   C518.734253,550.681519 526.301208,550.341003 533.814270,548.617920   C537.763611,547.712219 541.387024,545.975952 544.469238,543.341125   C550.906860,537.837830 550.059387,530.670715 542.535645,526.911499   C536.042297,523.667114 528.897339,522.732117 521.886475,521.366577   C508.012634,518.664307 493.927063,516.908386 480.664062,511.574097   C474.336548,509.029144 468.934753,505.266479 464.507324,500.151672   C456.494415,490.894623 456.593719,477.898163 464.593384,468.615814   C472.207397,459.781006 482.518127,456.065826 493.445343,453.987915   C511.832733,450.491455 530.254456,450.796844 548.309937,455.924103   C561.887939,459.779907 573.018860,466.869476 576.675476,481.832550   C577.988953,487.207520 577.333801,488.040863 571.914551,488.213104   C564.093445,488.461792 556.251953,487.838959 548.446350,488.774384   C545.949951,489.073547 544.418701,488.055023 543.525208,485.606140   C540.715088,477.903748 534.832947,474.234619 526.950012,473.057739   C518.280884,471.763458 509.639374,471.701538 501.164337,473.891022   C496.395782,475.122955 490.641602,476.507385 490.513000,482.742920   C490.386688,488.869263 496.216370,489.955750 500.639679,491.491394   C509.784027,494.666107 519.419922,495.811462 528.879578,497.666382   C537.368774,499.330963 545.821411,501.133911 554.093628,503.700012   C559.538452,505.389038 564.703918,507.680115 569.361389,510.993988   C585.971802,522.812683 586.536255,544.633423 570.687561,557.487488   C561.660095,564.809204 551.003784,567.691101 539.837952,569.301270   C536.712830,569.751892 533.556885,569.989746 529.939331,570.338989  z"/>
<path fill="#ffffff" opacity="1.000000" stroke="none" d=" M574.258179,294.880981   C575.394165,296.685455 577.067444,297.829224 576.797241,300.197296   C574.284851,301.733185 571.394531,301.042694 568.662231,301.093719   C562.833618,301.202667 556.989685,300.893829 551.174500,301.192505   C547.017273,301.406067 544.433472,299.778107 542.049316,296.486206   C534.136230,285.560272 525.812744,274.930817 517.937866,263.978271   C515.211853,260.186859 512.164551,258.577972 507.494202,258.860657   C501.519257,259.222321 495.500702,259.068848 489.509216,258.877808   C485.651154,258.754791 484.190338,260.205048 484.258850,264.129547   C484.441956,274.621613 484.180298,285.121704 484.378357,295.613251   C484.454102,299.626892 483.258331,301.403107 479.012817,301.218689   C473.193146,300.965851 467.352966,301.091949 461.523743,301.187927   C458.292023,301.241119 456.638336,300.226593 456.646454,296.609558   C456.723450,262.291565 456.721588,227.973236 456.630035,193.655289   C456.620148,189.953430 458.024872,188.700058 461.637756,188.716171   C484.627197,188.818726 507.619781,188.577240 530.606262,188.860428   C547.284119,189.065887 560.043518,199.484528 564.399170,215.628540   C568.404114,230.472351 562.133240,245.734192 548.508728,254.356705   C547.552856,254.961624 546.320923,255.274445 545.657043,257.235413   C554.949829,269.466797 564.492920,282.027588 574.258179,294.880981  M512.499329,213.360168   C504.669708,213.368759 496.839172,213.451431 489.010956,213.350662   C485.736298,213.308502 484.019958,214.286026 484.269684,217.925629   C484.508575,221.407639 484.445374,224.924332 484.287659,228.415497   C484.145477,231.561554 485.285126,232.966095 488.578552,232.942154   C502.071289,232.844025 515.566345,232.999374 529.057861,232.836349   C535.344666,232.760406 538.765747,229.089600 538.701721,223.201538   C538.638306,217.372437 535.010742,213.598984 528.990417,213.414337   C523.830872,213.256088 518.662964,213.367859 512.499329,213.360168  z"/>
<path fill="#ffffff" opacity="1.000000" stroke="none" d=" M265.545959,455.220917   C282.564270,455.880127 293.653229,464.170776 298.889618,479.705017   C304.190216,495.429932 297.859497,511.574219 283.663025,520.327332   C282.697144,520.922913 281.779633,521.597046 280.240082,522.641235   C291.058685,536.982544 301.716827,551.111206 312.311554,565.155762   C310.306641,567.451050 308.192322,566.982422 306.274567,566.997864   C299.611176,567.051514 292.938721,566.791443 286.285919,567.056885   C282.156464,567.221680 279.467255,565.653564 277.083893,562.401855   C269.009613,551.385620 260.611481,540.605713 252.601334,529.544189   C250.117203,526.113831 247.583069,524.439453 243.136581,524.744995   C237.010468,525.166016 230.821686,524.763611 224.663162,524.591736   C221.000198,524.489563 219.201828,525.683777 219.280136,529.767029   C219.484558,540.425354 219.201782,551.092896 219.400101,561.751404   C219.472595,565.647461 218.122620,567.178894 214.241745,567.059509   C208.582748,566.885315 202.912140,566.913269 197.250931,567.045166   C193.268127,567.138000 191.686310,565.611267 191.699554,561.450867   C191.807190,527.631592 191.781815,493.811615 191.670792,459.992218   C191.658661,456.298035 192.997498,454.953674 196.619522,454.974091   C219.442276,455.102722 242.265656,455.118011 265.545959,455.220917  M251.490845,479.344696   C242.341232,479.348419 233.190720,479.426025 224.042450,479.317322   C220.660950,479.277161 219.154938,480.537201 219.315689,484.010742   C219.484680,487.662720 219.495621,491.335938 219.309952,494.986389   C219.136108,498.404388 220.424728,499.779663 223.921860,499.697998   C231.071213,499.530975 238.227356,499.664154 245.380676,499.653809   C251.535461,499.644897 257.707245,499.885101 263.840302,499.507538   C270.172913,499.117676 273.849731,494.982208 273.751587,489.210297   C273.651001,483.292206 269.916351,479.654205 263.463867,479.396454   C259.809509,479.250519 256.145203,479.354187 251.490845,479.344696  z"/>
<path fill="#ffffff" opacity="1.000000" stroke="none" d=" M403.999573,464.006256   C408.159882,455.780609 414.645721,453.737122 423.142242,454.499695   C430.911652,455.197021 438.794006,454.620758 446.626526,454.641327   C448.234558,454.645538 449.914795,454.364624 452.212463,455.671844   C447.420868,461.480774 442.838257,467.058868 438.231262,472.616730   C429.515076,483.132050 420.860596,493.700195 412.011017,504.102203   C409.584839,506.954041 409.805634,508.793854 412.206482,511.677734   C426.170288,528.450806 439.884552,545.431763 453.664001,562.358093   C454.482025,563.362915 455.580139,564.253723 455.590759,565.756409   C454.358826,567.319031 452.582489,566.977722 450.978882,566.982849   C440.146759,567.017334 429.313599,566.914795 418.482666,567.030823   C415.157257,567.066467 412.938416,565.870178 410.942780,563.183594   C404.385681,554.356506 397.594116,545.703369 390.873749,536.997925   C389.980652,535.841003 389.370911,534.356873 387.036407,533.781433   C384.264496,537.306824 381.294952,541.039124 378.373718,544.808899   C373.475739,551.129700 368.596924,557.465454 363.736176,563.814941   C362.486511,565.447327 361.183044,566.922119 358.906555,566.917480   C347.244110,566.893738 335.581573,566.883728 323.919464,566.808044   C323.175293,566.803284 322.434479,566.285461 321.769989,566.035645   C321.664520,563.861694 323.069244,562.764221 324.085876,561.512878   C337.323181,545.219727 350.503754,528.878845 363.925323,512.738586   C366.349091,509.823853 366.348816,508.080811 363.930725,505.221313   C351.343597,490.336090 338.966339,475.273224 326.537140,460.254730   C325.401367,458.882294 323.826233,457.748932 323.679565,455.623718   C325.115997,454.005524 327.067261,454.677063 328.769745,454.663605   C339.601349,454.577972 350.436188,454.720001 361.264374,454.505432   C364.299408,454.445251 366.160706,455.402893 367.897339,457.829346   C373.133331,465.145386 378.572510,472.317169 384.002197,479.492432   C385.067657,480.900330 385.760010,482.767792 388.391510,483.449463   C393.419952,477.186127 398.599243,470.734833 403.999573,464.006256  z"/>
<path fill="#ffffff" opacity="1.000000" stroke="none" d=" M496.767975,423.734283   C492.922363,431.150208 487.184601,433.124084 479.330688,432.515442   C469.784851,431.775574 460.137909,432.339661 450.601135,432.339661   C450.111938,429.463013 451.888611,428.391052 452.971405,427.050903   C465.851715,411.108582 478.698700,395.137787 491.759857,379.344360   C494.582764,375.930878 494.861603,373.636871 491.801666,370.049133   C479.152100,355.217773 466.844177,340.094879 454.428558,325.064362   C453.419037,323.842224 451.834015,322.863586 452.334686,320.592194   C452.807404,320.400299 453.389252,319.959900 453.973175,319.957184   C466.469513,319.899292 478.966095,319.888855 491.462616,319.873291   C494.018616,319.870087 495.175568,321.787781 496.472198,323.528625   C502.046021,331.012024 507.618378,338.496552 513.222717,345.957092   C514.098389,347.122742 515.136414,348.166351 516.551086,349.782501   C523.192322,341.355103 529.782288,333.458710 535.806091,325.151764   C538.804016,321.017578 542.162476,319.539032 547.153625,319.725708   C556.473450,320.074280 565.815857,319.790680 575.147949,319.870697   C576.871033,319.885498 578.849426,319.252045 580.432556,321.163483   C579.236084,324.486694 576.419617,326.703156 574.264954,329.322235   C563.468689,342.445343 552.631531,355.538910 541.556152,368.425781   C538.336670,372.171875 538.435913,374.708099 541.643250,378.513702   C555.063965,394.437836 568.142212,410.650909 581.319336,426.779846   C582.444031,428.156555 583.967285,429.343719 584.092468,431.401337   C582.963257,432.888702 581.341980,432.310669 579.953613,432.316650   C568.954468,432.364136 557.953247,432.227417 546.956604,432.398224   C543.598022,432.450348 541.390625,431.325043 539.407288,428.646118   C533.260681,420.343536 526.906128,412.194672 520.605530,404.006653   C519.405029,402.446503 518.082520,400.980164 516.234375,398.776733   C509.583313,407.300385 503.283417,415.374023 496.767975,423.734283  z"/>
<path fill="#ffffff" opacity="1.000000" stroke="none" d=" M565.403564,687.443237   C554.589050,696.897888 542.012024,701.350342 528.332153,702.729492   C510.461273,704.531189 493.132050,702.815552 477.145660,693.607300   C456.738892,681.852783 449.762756,661.128906 452.161591,640.900024   C455.703400,611.032471 473.561340,594.251892 503.677887,590.568848   C522.815125,588.228577 541.291992,589.877258 558.071045,600.193359   C574.102417,610.049744 581.577393,624.960388 582.288635,643.544434   C582.936401,660.470337 578.750366,675.518860 565.403564,687.443237  M482.227661,658.179993   C483.986023,665.385254 487.592438,671.387329 493.617950,675.855225   C517.138245,693.295410 549.581848,680.403992 553.220520,651.608704   C555.743164,631.645691 548.290833,614.845947 526.753235,610.721741   C519.536804,609.339844 512.147095,609.514099 504.920197,611.275574   C498.783844,612.771301 493.421600,615.673706 489.225128,620.489075   C479.727264,631.387573 480.107849,644.226013 482.227661,658.179993  z"/>
<path fill="#ffffff" opacity="1.000000" stroke="none" d=" M622.397583,558.738770   C588.232849,541.260132 589.388733,496.969330 605.946594,477.000549   C615.903809,464.992188 629.066833,458.845337 644.318909,456.746460   C658.845642,454.747375 673.200012,455.310608 687.288696,459.652252   C715.501099,468.346283 728.470520,491.650177 724.842590,520.397522   C721.631958,545.838928 701.382324,562.837158 672.942322,566.096558   C655.598816,568.084229 638.684998,566.740906 622.397583,558.738770  M687.476379,536.966919   C693.087891,531.420471 695.602844,524.389221 696.287048,516.814758   C697.501404,503.370026 695.726990,490.764893 683.763977,482.006378   C671.644531,473.133270 650.492493,472.824097 637.884155,481.040009   C626.104675,488.715820 623.399719,500.472443 623.768433,513.214111   C624.076050,523.843506 627.417847,533.514160 636.573364,540.156738   C651.211609,550.777100 673.476868,549.577698 687.476379,536.966919  z"/>
<path fill="#ffffff" opacity="1.000000" stroke="none" d=" M543.999939,837.973267   C520.354675,837.956970 497.209351,837.951294 474.064056,837.916931   C467.760590,837.907593 467.630005,837.738892 467.627289,831.481812   C467.612915,798.345764 467.656097,765.209412 467.508270,732.073975   C467.491272,728.270386 468.368744,726.580200 472.459686,726.735840   C478.944275,726.982422 485.453094,726.992920 491.936432,726.729065   C496.238129,726.554077 497.306580,728.408203 497.283508,732.372375   C497.143860,756.349548 497.319305,780.329102 497.066925,804.304565   C497.014282,809.305481 498.417603,810.861206 503.508301,810.865662   C522.814575,810.882507 542.119751,811.484070 561.426941,811.596375   C565.735718,811.621460 567.469421,812.907104 567.228638,817.318176   C566.966003,822.130676 566.943420,826.996155 567.346252,831.794006   C567.767029,836.804871 565.591553,838.224976 560.982239,838.015198   C555.498840,837.765625 549.994934,837.967041 543.999939,837.973267  z"/>
<path fill="#ffffff" opacity="1.000000" stroke="none" d=" M771.420044,491.000122   C771.420227,507.135651 771.420227,522.771179 771.420227,538.447449   C774.407593,539.785156 777.253784,539.579712 780.023743,539.602783   C797.342468,539.747253 814.661804,539.829834 831.980896,539.922180   C843.286621,539.982483 841.068726,540.431885 841.388794,549.060547   C841.543030,553.217896 841.749329,557.373962 841.986877,561.527405   C842.175354,564.822083 840.914856,566.377380 837.381104,566.367798   C807.072144,566.285950 776.762756,566.258911 746.453918,566.350464   C741.780762,566.364563 742.037048,563.415710 742.036621,560.337646   C742.032288,532.193420 742.026978,504.049225 742.024231,475.904999   C742.023743,470.908997 742.145264,465.909790 742.001953,460.918030   C741.894958,457.189270 743.150574,455.470764 747.192017,455.628357   C753.843262,455.887634 760.514465,455.804932 767.172241,455.649261   C770.415833,455.573456 771.529053,456.764496 771.477051,460.025085   C771.315002,470.181152 771.418945,480.341461 771.420044,491.000122  z"/>
<path fill="#ffffff" opacity="1.000000" stroke="none" d=" M314.740417,323.342987   C308.492828,320.620453 302.602844,318.029175 296.712860,315.437866   C299.143738,319.911591 303.090088,322.673035 306.260895,326.157013   C307.939606,328.001526 312.881317,329.219604 309.434906,332.938263   C306.350922,336.265839 304.506500,332.056213 302.687897,330.486755   C296.643524,325.270477 290.823151,319.792297 284.981964,314.344757   C283.529968,312.990570 280.919830,311.831970 283.016357,309.143250   C284.787018,306.872437 286.543793,304.762329 290.077393,306.457642   C296.074097,309.334595 302.211823,311.918579 308.302826,314.597076   C309.475220,315.112579 310.705505,315.496552 313.149017,316.399231   C308.944580,308.571655 305.457916,301.670929 301.560852,295.010315   C299.806702,292.012238 299.904236,289.891418 302.526642,287.673859   C305.324219,285.308136 306.853149,287.865845 308.403351,289.248077   C314.860321,295.005249 321.190918,300.905304 327.512665,306.812012   C329.023376,308.223572 331.242676,309.650024 328.719971,312.073822   C326.273987,314.423889 324.836151,312.171875 323.312592,310.815704   C318.975281,306.954956 314.706268,303.017456 309.787933,299.513702   C312.985199,305.542847 316.303436,311.511963 319.336700,317.622467   C321.317627,321.613007 319.766266,323.578827 314.740417,323.342987  z"/>
<path fill="#ffffff" opacity="1.000000" stroke="none" d=" M816.358398,619.677734   C817.307617,620.647888 818.039246,621.333740 818.693726,622.086731   C819.970459,623.555603 821.762878,624.825317 820.461304,627.241333   C819.119873,629.731262 816.888245,629.350464 814.763245,629.061584   C808.191772,628.168335 801.633728,627.175964 794.662842,627.165283   C799.379883,629.520691 804.098816,631.872375 808.812988,634.233643   C810.152649,634.904541 811.466431,635.627930 812.813782,636.282471   C814.454102,637.079346 814.980469,638.219421 814.131226,639.921936   C813.307861,641.572510 812.052612,642.040588 810.433533,641.239685   C801.480164,636.811340 792.533752,632.368713 783.607544,627.885864   C781.778137,626.967102 781.559021,625.473083 782.416260,623.673523   C783.543396,621.307434 784.666321,619.388428 787.987000,619.976379   C795.342102,621.278503 802.751648,622.274353 810.143677,623.363708   C810.911743,623.476929 811.710938,623.378906 813.562866,623.378906   C807.970825,617.696716 802.997192,612.655823 798.041260,607.597595   C796.877075,606.409424 795.725037,605.203003 794.651917,603.933655   C793.035950,602.022217 793.944153,600.181213 794.984558,598.411987   C796.315125,596.149170 798.088623,597.065613 799.747986,597.884705   C807.958557,601.937134 816.157349,606.013550 824.345886,610.110413   C826.004700,610.940308 827.839355,611.818420 826.790894,614.223389   C825.583984,616.992065 823.598694,615.915405 821.784180,615.029602   C816.107056,612.258606 810.455078,609.436218 804.265442,607.218018   C808.212219,611.286621 812.159058,615.355164 816.358398,619.677734  z"/>
<path fill="#ffffff" opacity="1.000000" stroke="none" d=" M608.196228,782.948364   C610.293579,782.204285 611.986328,781.454163 613.757629,781.040100   C617.985413,780.051453 621.733032,780.832336 624.335083,784.637878   C626.824097,788.277954 627.122131,792.026978 624.567871,795.807251   C624.026917,796.607910 623.514404,797.427917 622.875183,798.414246   C627.616699,801.773193 632.721619,804.265259 636.786255,808.455017   C634.312378,811.249756 631.893555,811.957214 628.856995,809.774475   C626.022522,807.737061 623.098328,805.815491 620.134155,803.970581   C617.960876,802.617859 615.698608,802.027161 613.023865,802.936951   C609.860596,804.013000 608.622742,805.548767 610.175110,808.826660   C611.311401,811.225952 612.184204,813.752258 613.129883,816.238953   C613.775757,817.937439 613.198547,819.144348 611.512939,819.823975   C609.887268,820.479431 608.474609,820.241272 607.778259,818.526550   C604.024719,809.284302 600.341492,800.013550 596.611084,790.761841   C595.755615,788.640381 596.945862,787.693726 598.636414,786.978516   C601.699524,785.682739 604.763672,784.389465 608.196228,782.948364  M612.185913,797.585754   C614.500671,796.651428 616.850159,795.763000 618.679749,793.975891   C619.902710,792.781250 620.942200,791.469971 620.126343,789.586914   C619.433777,787.988464 618.422058,786.606689 616.583130,786.419556   C611.821716,785.934814 607.380432,787.864319 604.263611,790.768738   C602.046875,792.834412 605.357056,796.091064 606.438538,798.741821   C606.532654,798.972412 606.985046,799.056824 607.474854,799.317688   C608.724060,798.856201 610.113708,798.342834 612.185913,797.585754  z"/>
<path fill="#ffffff" opacity="1.000000" stroke="none" d=" M704.828003,721.445557   C714.503357,717.944641 722.934509,720.779236 728.079590,728.961609   C733.011780,736.805359 732.316101,744.720154 726.159424,750.808777   C718.761841,758.124634 708.082520,757.663025 700.982361,749.720520   C693.438293,741.281433 693.685425,730.197510 701.594971,723.582886   C702.481567,722.841431 703.516479,722.277222 704.828003,721.445557  M724.272156,744.637939   C727.255798,736.484497 721.657471,726.805725 713.161438,725.429077   C708.199280,724.624939 702.572449,728.405884 701.407043,733.327393   C700.189758,738.468140 703.991272,745.914124 709.281311,748.750916   C714.193787,751.385132 719.507507,750.116577 724.272156,744.637939  z"/>
<path fill="#ffffff" opacity="1.000000" stroke="none" d=" M277.065552,353.982788   C271.967102,350.200592 267.194946,346.575897 262.336029,343.071411   C259.822845,341.258728 259.317322,339.499481 261.375427,336.886108   C265.080902,332.180878 268.531433,327.275482 272.119995,322.477295   C273.231781,320.990784 274.384979,319.330383 276.559296,320.990234   C278.555023,322.513733 277.842865,324.093811 276.632996,325.722778   C273.567047,329.850677 270.539612,334.007263 267.461060,338.200958   C268.829559,341.017670 271.388031,341.930328 273.776459,343.519073   C277.565338,340.359344 279.902649,336.086884 282.989166,332.465607   C284.139343,331.116180 285.072479,329.171082 287.379395,330.812469   C289.927490,332.625488 288.315277,334.183472 287.129333,335.802551   C285.064148,338.621948 283.159302,341.572144 280.932648,344.256287   C278.347412,347.372620 280.337158,348.937103 282.644318,350.623749   C284.926941,352.292450 286.976227,353.823975 289.231293,350.404510   C291.609924,346.797638 294.328979,343.414856 296.907928,339.940582   C298.081726,338.359314 299.343353,337.075195 301.419342,338.697327   C303.518646,340.337677 302.438599,341.840240 301.272491,343.381195   C297.456268,348.424164 293.568085,353.416199 289.886597,358.556061   C288.086273,361.069550 286.402283,361.160980 284.133484,359.293671   C281.951935,357.498169 279.621155,355.883972 277.065552,353.982788  z"/>
<path fill="#ffffff" opacity="1.000000" stroke="none" d=" M771.325195,662.531250   C766.458130,655.036865 766.493042,647.385498 771.180359,641.366333   C775.855347,635.363037 783.031128,633.373291 790.390930,636.039673   C798.654297,639.033447 804.213623,646.019043 804.100220,653.266357   C803.983948,660.700073 798.920654,667.683960 791.750305,669.647339   C783.601562,671.878601 777.203674,668.322021 771.325195,662.531250  M793.974548,662.581604   C799.023682,657.723328 799.973572,653.492065 797.052063,648.494080   C794.836975,644.704590 791.297485,642.600342 787.290100,641.219116   C780.350708,638.827271 773.642944,643.353333 773.173950,650.680237   C772.561035,660.254272 784.125854,667.320312 793.974548,662.581604  z"/>
<path fill="#ffffff" opacity="1.000000" stroke="none" d=" M243.488693,377.571320   C241.914383,376.578766 240.600372,375.848358 239.401382,374.962280   C237.885635,373.842194 238.102753,372.442017 238.985107,371.000244   C239.940048,369.439911 241.189362,369.098328 242.777130,370.005096   C243.210342,370.252502 243.631546,370.521301 244.068909,370.760895   C252.775085,375.529999 252.797577,375.542419 257.747040,367.068237   C258.648376,365.524994 259.946564,364.122437 260.013580,362.017487   C257.783813,359.537872 254.571671,358.411835 251.843048,356.587036   C250.209412,355.494598 248.811951,354.438507 250.062073,352.186401   C251.405289,349.766632 253.113876,350.170288 255.068878,351.346893   C263.187653,356.233185 271.321411,361.094543 279.463531,365.941833   C281.286560,367.027130 282.232391,368.296753 280.909607,370.395264   C279.575806,372.511230 277.975830,372.101898 276.230194,371.014557   C275.101624,370.311523 273.983978,369.557251 272.773529,369.026337   C270.298340,367.940765 267.778534,364.251801 265.445496,366.146606   C261.917908,369.011444 260.035095,373.604523 258.143250,377.844208   C257.560852,379.149353 259.076477,379.813629 260.041260,380.403687   C262.593781,381.964935 265.192017,383.451233 267.754761,384.996033   C269.334808,385.948517 271.108521,386.810486 269.848816,389.222931   C268.564362,391.682648 266.776276,391.335022 264.841492,390.195129   C257.822723,386.059937 250.813126,381.909210 243.488693,377.571320  z"/>
<path fill="#ffffff" opacity="1.000000" stroke="none" d=" M702.442505,758.734985   C704.324768,765.926453 702.922363,770.167053 697.235779,774.261963   C692.428467,777.723694 687.286499,779.935852 681.510010,776.389648   C679.910522,775.407715 677.484985,774.479736 678.940247,771.897583   C680.135864,769.776184 681.909790,770.063293 684.088806,771.021729   C688.782959,773.086182 693.637695,771.544128 696.452209,767.518921   C697.877625,765.480408 698.637512,763.259460 696.903625,761.078064   C695.305298,759.066956 693.201660,759.270752 691.001770,760.165222   C687.918335,761.419006 684.841309,762.739319 681.658813,763.685791   C677.458496,764.935059 673.357544,764.981506 670.440491,760.872925   C667.813171,757.172424 668.213501,752.468628 671.423157,748.380737   C675.645142,743.003479 683.369995,740.621521 688.274902,743.260681   C689.869019,744.118408 691.875244,745.098877 690.771362,747.389648   C689.846375,749.309204 688.045654,749.686401 686.096008,748.611755   C681.445679,746.048340 678.604370,749.217957 675.728638,751.987549   C674.304626,753.358948 673.777527,755.153076 674.971069,756.971863   C676.168640,758.796814 677.943970,758.934082 679.839050,758.220154   C683.109314,756.988159 686.325195,755.598328 689.636230,754.490967   C695.300171,752.596741 698.413391,753.628113 702.442505,758.734985  z"/>
<path fill="#ffffff" opacity="1.000000" stroke="none" d=" M348.380554,290.047180   C339.254486,287.563446 333.443817,282.108307 331.144592,273.317291   C329.525940,267.128540 331.469391,261.731964 336.181946,257.569275   C340.487793,253.765808 345.459259,251.599472 351.274139,254.060471   C352.914459,254.754715 355.648987,255.139771 354.417725,258.043976   C353.526031,260.147217 351.799316,260.887146 349.493011,259.902283   C344.945587,257.960358 341.430847,259.697449 338.502686,263.201782   C335.354858,266.969025 335.946289,270.841949 338.254669,274.744232   C339.960938,277.628632 342.032684,280.118134 344.753296,282.188110   C348.488586,285.030060 352.172028,284.901001 355.774567,282.427399   C359.264954,280.030823 361.490936,276.859161 359.886566,272.268311   C359.093811,269.999969 359.626465,268.292114 362.100189,267.635986   C365.056458,266.851898 365.379120,269.275574 365.888336,271.097870   C368.481689,280.378235 360.231293,289.514740 348.380554,290.047180  z"/>
<path fill="#ffffff" opacity="1.000000" stroke="none" d=" M365.997498,239.284882   C367.903259,234.779800 370.454071,234.094772 374.204498,236.891281   C381.930145,242.651886 389.807526,248.208771 397.611450,253.864670   C398.658173,254.623291 399.924774,255.210724 400.314117,256.861176   C398.323334,259.762939 396.173431,260.538147 392.948059,258.211761   C387.184967,254.054977 382.840363,254.664520 377.581909,259.781769   C376.480957,260.853149 376.191376,261.981171 376.447937,263.363251   C376.751129,264.996582 377.035858,266.637512 377.441589,268.246674   C378.071960,270.746857 377.320953,272.752441 374.846802,273.345612   C371.749207,274.088287 372.030457,271.340240 371.678436,269.521057   C369.754913,259.581177 367.880310,249.631775 365.997498,239.284882  M373.081451,245.604340   C373.584625,248.470200 374.087799,251.336075 374.635620,254.456100   C377.884308,253.685547 380.077118,252.593201 381.481842,250.071762   C379.293671,247.202484 376.478607,245.411667 373.709015,243.706940   C372.258453,242.814087 372.940948,244.388779 373.081451,245.604340  z"/>
<path fill="#ffffff" opacity="1.000000" stroke="none" d=" M244.059937,420.288879   C236.799973,419.798859 231.034286,417.179504 226.902451,411.626923   C220.271851,402.716309 225.416153,388.461395 235.936829,386.538239   C237.917068,386.176270 240.596085,385.244202 241.123657,388.499237   C241.574051,391.278015 239.670700,391.923126 237.209274,392.435455   C229.422363,394.056183 226.755905,402.842438 232.157898,408.646698   C235.761368,412.518555 240.455109,414.285980 245.553040,414.462982   C252.532410,414.705322 257.200867,406.794769 253.996429,400.550598   C253.546188,399.673248 252.945068,398.838318 252.270126,398.118439   C250.703033,396.446899 250.783005,394.893250 252.411423,393.366119   C254.343369,391.554474 255.747437,392.856689 257.047577,394.243835   C261.167145,398.638977 261.289429,403.965973 259.734314,409.214661   C258.093414,414.752869 254.519257,418.855865 248.476410,420.055328   C247.185883,420.311493 245.828522,420.231018 244.059937,420.288879  z"/>
<path fill="#ffffff" opacity="1.000000" stroke="none" d=" M780.629517,691.375671   C773.423157,700.755859 765.275818,701.682312 755.257751,694.550232   C746.703857,688.460693 744.643921,678.755066 750.170654,670.581848   C753.444946,665.739441 759.602722,662.778381 764.248047,663.931519   C765.798157,664.316345 767.796082,664.608154 767.304382,666.995361   C766.902527,668.946472 765.983032,670.408020 763.507935,669.742310   C759.024109,668.536438 756.186462,670.924683 754.038147,674.407288   C751.667786,678.249756 752.218445,681.966309 754.803284,685.554688   C757.221924,688.912415 760.525024,691.008423 764.213257,692.690674   C768.322266,694.564880 771.738708,693.293701 774.617920,690.359802   C777.504150,687.418762 778.821594,683.878296 776.645996,679.938538   C775.387207,677.659119 774.470825,675.510315 777.470215,674.172668   C780.829590,672.674561 781.302185,675.874634 782.149597,677.752991   C784.228210,682.360291 783.425354,686.834412 780.629517,691.375671  z"/>
<path fill="#ffffff" opacity="1.000000" stroke="none" d=" M641.206177,791.503052   C642.620667,786.952393 640.783386,784.714417 637.049927,782.968567   C633.054016,781.099976 628.766541,779.602905 625.237122,776.420715   C627.582214,772.379944 630.482910,773.021912 633.721497,774.764709   C636.609741,776.319092 639.599609,777.684387 642.469299,779.096008   C646.240051,774.109314 641.816895,765.505371 650.651855,762.630127   C650.786987,768.431458 649.643127,773.419983 648.713257,778.380676   C648.180664,781.222229 648.919617,782.712280 651.400696,783.918518   C656.586487,786.439575 661.685242,789.139771 667.112122,791.915894   C664.206787,796.427979 661.106934,795.437561 657.834839,793.720947   C654.752808,792.104065 651.625427,790.573547 648.467834,788.979675   C643.631775,794.030151 649.036011,804.091797 638.856567,807.380676   C639.686584,801.609924 640.384399,796.757751 641.206177,791.503052  z"/>
<path fill="#ffffff" opacity="1.000000" stroke="none" d=" M398.836731,243.079666   C396.408966,238.113678 394.078308,233.513138 391.907074,228.838516   C390.871002,226.607819 388.393341,223.938980 392.345520,222.182892   C396.346771,220.404984 396.562897,224.258545 397.612762,226.370300   C400.572693,232.324066 403.422821,238.338165 406.107147,244.420761   C407.413635,247.381256 409.019928,248.027679 411.872681,246.454361   C414.633179,244.931931 417.568817,243.726013 420.433502,242.393967   C421.983704,241.673141 423.320770,241.718735 424.206543,243.456100   C425.083679,245.176437 424.427917,246.369659 422.877563,247.132523   C417.805603,249.628189 412.704010,252.063660 407.617981,254.530746   C405.611786,255.503891 404.479828,254.477020 403.645538,252.805374   C402.085938,249.680557 400.546844,246.545502 398.836731,243.079666  z"/>
<path fill="#ffffff" opacity="1.000000" stroke="none" d=" M727.073486,721.927612   C724.042664,719.041138 721.252808,716.414917 718.493774,713.756714   C717.075562,712.390198 716.052673,710.948547 717.800171,709.057129   C719.589355,707.120544 720.998840,708.138000 722.449768,709.512573   C727.770447,714.553955 733.199463,719.485474 738.397583,724.649719   C740.731812,726.968628 742.493164,726.941284 744.573181,724.505676   C746.518677,722.227600 748.627502,720.088440 750.677612,717.900574   C751.953735,716.538635 753.319031,715.842712 754.968506,717.383362   C756.617432,718.923523 756.037598,720.329468 754.733459,721.682556   C751.033691,725.521118 747.290039,729.317993 743.628540,733.192505   C741.729919,735.201538 740.149170,734.457825 738.518921,732.889465   C734.797180,729.308716 731.058838,725.745178 727.073486,721.927612  z"/>
<path fill="#ffffff" opacity="1.000000" stroke="none" d=" M319.049683,283.885071   C317.546143,281.158783 312.417084,279.404083 316.106232,276.043854   C319.913300,272.576233 321.397461,277.734406 323.207672,279.599548   C328.737793,285.297424 333.823853,291.424438 339.141235,297.331787   C340.629608,298.985291 341.613342,300.401825 339.446899,302.310028   C337.165863,304.319183 335.849121,302.691650 334.510406,301.203857   C329.414825,295.540924 324.361542,289.839935 319.049683,283.885071  z"/>
<path fill="#ffffff" opacity="1.000000" stroke="none" d=" M672.386963,776.491089   C669.995178,778.018738 667.894836,779.346619 665.804993,780.690674   C664.026550,781.834473 662.727478,781.339783 661.676147,779.610107   C660.624817,777.880615 661.449829,776.849304 662.865234,775.942871   C665.097290,774.513428 667.322571,773.072815 669.530640,771.606812   C671.022217,770.616516 672.490173,769.887878 673.813660,771.791443   C675.137207,773.695190 674.660034,775.197327 672.386963,776.491089  z"/>
<path fill="#ffffff" opacity="1.000000" stroke="none" d=" M757.641113,710.131470   C758.629272,708.419250 759.478088,706.724487 761.515747,707.337524   C762.773499,707.716064 763.888306,708.665222 763.993530,710.175049   C764.082764,711.455688 763.307434,712.488892 762.300049,713.044189   C759.503174,714.585999 758.504211,712.512573 757.641113,710.131470  z"/>
</svg>