<svg xmlns="http://www.w3.org/2000/svg" width="800px" height="800px" viewBox="0 0 97.03 112.74"><g><path class="cls-1" d="m87.58,17.32h-6.35v30.15c.01.42-.15.84-.45,1.14-.3.3-.71.46-1.14.45-.85.03-1.56-.64-1.59-1.49,0-.03,0-.07,0-.1v-30.15h-6.35v30.15c.01.42-.15.84-.45,1.14-.3.3-.71.46-1.14.45-.85.03-1.56-.64-1.58-1.49,0-.03,0-.07,0-.1v-30.15h-6.35v29.62c0,1.04.1,2.08.32,3.1.18.91.56,1.77,1.11,2.51.55.72,1.27,1.3,2.09,1.69,1,.45,2.1.67,3.2.63,1.45.1,2.89-.3,4.07-1.14.84-.66,1.5-1.52,1.9-2.51.19.48.44.93.74,1.35.33.45.73.85,1.19,1.16.53.36,1.11.64,1.72.82.77.23,1.58.33,2.38.32,1.09.04,2.18-.18,3.18-.63.81-.39,1.52-.97,2.06-1.69.55-.75.93-1.6,1.11-2.51.22-1.02.32-2.05.32-3.1v-29.62h0Zm-40.13,37.03h11.68l-.05-5.82h-5.29v-9.79h4.76v-5.82h-4.76v-9.79h5.29v-5.82h-11.64v37.02Zm-11.29-31.2c.85-.03,1.56.64,1.58,1.49,0,.03,0,.07,0,.1v6.93c.03.85-.64,1.56-1.49,1.59-.03,0-.07,0-.1,0h-1.59v-10.1h1.59Zm-7.93,31.2h6.35v-15.29h.53c.41-.02.81.14,1.08.45.27.32.45.72.5,1.14l1.58,13.7h6.35l-1.58-13.17c-.25-2.04-.92-3.36-2.01-3.96,1.05-.46,1.9-1.28,2.38-2.33.49-1.19.72-2.47.69-3.76v-5.88c0-1.04-.1-2.08-.32-3.09-.18-.9-.55-1.76-1.08-2.51-.54-.73-1.26-1.31-2.09-1.69-1.07-.46-2.22-.68-3.38-.63h-8.99v37.03h0Zm-12.44-5.82v-11.11h1.58c1.01.02,1.83.84,1.85,1.85v7.4c-.02,1.01-.84,1.83-1.85,1.85h-1.58Zm0-16.93v-8.46h1.32c.85-.03,1.56.64,1.58,1.49,0,.03,0,.07,0,.1v5.29c.03.85-.64,1.56-1.49,1.59-.03,0-.07,0-.1,0h-1.32Zm-6.35,22.74h8.99c1.2.04,2.39-.18,3.49-.63.87-.38,1.63-.98,2.2-1.75.56-.78.95-1.67,1.14-2.62.22-1.05.32-2.13.32-3.2v-6.35c.06-1.19-.21-2.38-.77-3.44-.55-.88-1.38-1.55-2.35-1.9,1.73-.85,2.59-2.5,2.59-4.97v-4.23c0-1.04-.1-2.08-.32-3.09-.18-.91-.55-1.77-1.09-2.52-.54-.73-1.26-1.31-2.09-1.69-1.07-.46-2.22-.68-3.38-.63h-8.73v37.03h0Z" fill="#0e0000"/><path id="Path_2" class="cls-1" d="m9.45,60.78h4.4c.62-.02,1.23.09,1.8.33.46.2.86.5,1.18.88.31.38.54.83.66,1.31.14.53.2,1.07.2,1.61v11c0,.54-.06,1.08-.2,1.61-.12.48-.35.92-.66,1.31-.32.38-.73.68-1.18.88-.57.24-1.18.35-1.8.33h-4.4v-19.25Zm3.3,3.03v13.2h.83c.44.01.81-.33.82-.78,0-.02,0-.03,0-.05v-11.55c.01-.44-.33-.81-.78-.82-.02,0-.03,0-.05,0h-.83Z" fill="#0e0000"/><rect id="Rectangle_9" class="cls-1" x="21.37" y="60.78" width="3.3" height="19.25" fill="#0e0000"/><path class="cls-1" d="m32.55,60.51c.63-.02,1.26.1,1.84.33.48.2.92.5,1.28.88.34.38.6.82.76,1.31.17.52.25,1.06.25,1.61v1.02h-3.3v-1.3c0-.46-.39-.83-.85-.82-.21,0-.41.09-.57.23-.15.16-.24.37-.23.59,0,.7.13,1.39.38,2.04.26.67.58,1.31.96,1.93.38.62.81,1.24,1.26,1.86s.88,1.24,1.26,1.87c.38.62.7,1.27.96,1.94.26.66.39,1.36.38,2.06,0,.57-.09,1.13-.26,1.67-.16.5-.43.97-.78,1.36-.37.4-.82.71-1.32.91-1.23.44-2.57.44-3.8,0-.5-.2-.95-.51-1.32-.91-.35-.39-.62-.86-.78-1.36-.18-.54-.26-1.1-.26-1.67v-1.45h3.3v1.72c0,.53.43.96.97.96.53,0,.96-.43.96-.96,0-.65-.13-1.29-.38-1.88-.27-.61-.59-1.2-.96-1.75-.38-.57-.81-1.14-1.26-1.73-.46-.59-.88-1.21-1.26-1.86-.39-.65-.71-1.35-.96-2.06-.27-.77-.4-1.59-.38-2.41,0-.55.08-1.09.25-1.61.15-.49.41-.93.76-1.31.36-.38.8-.68,1.28-.88.59-.23,1.21-.35,1.84-.33h0Z" fill="#0e0000"/><path id="Path_4" class="cls-1" d="m40.74,63.67h-2.2v-3.03h7.7v3.03h-2.2v16.23h-3.3v-16.23Z" fill="#0e0000"/><path class="cls-1" d="m49.04,60.78h4.68c.6-.02,1.21.09,1.76.33.43.2.8.5,1.09.88.28.39.47.84.56,1.31.11.53.17,1.07.17,1.61v3.05c.02.67-.1,1.34-.36,1.95-.25.54-.69.97-1.24,1.21.66.48,1.05,1.25,1.04,2.06l.83,6.85h-3.3l-.83-7.12c-.03-.22-.12-.42-.26-.59-.14-.16-.35-.24-.56-.23h-.28v7.95h-3.3v-19.25h0Zm3.3,3.03v5.25h.83c.44.01.81-.33.82-.78,0-.02,0-.03,0-.05v-3.6c.01-.44-.33-.81-.78-.82-.02,0-.03,0-.05,0h-.83Z" fill="#0e0000"/><rect class="cls-1" x="60.9" y="60.78" width="3.3" height="19.25" fill="#0e0000"/><path class="cls-1" d="m76.33,69.06h-3.3v-4.7c0-.45-.37-.82-.82-.82-.45,0-.82.37-.82.82h0v12.1c0,.45.37.82.82.82.45,0,.82-.37.82-.82h0v-4.13h3.3v3.85c0,.55-.08,1.09-.25,1.61-.15.49-.41.93-.76,1.31-.36.38-.8.68-1.28.88-1.19.44-2.5.44-3.68,0-.48-.2-.92-.5-1.28-.88-.35-.38-.6-.82-.76-1.31-.17-.52-.25-1.06-.25-1.61v-11.55c0-.55.08-1.09.25-1.61.15-.49.41-.93.76-1.31.36-.38.8-.68,1.28-.88,1.19-.44,2.5-.44,3.68,0,.48.2.92.5,1.28.88.34.38.6.82.76,1.31.17.52.25,1.06.25,1.61v4.43Z" fill="#0e0000"/><path class="cls-1" d="m82.08,63.8h-2.2v-3.03h7.7v3.03h-2.2v16.23h-3.3v-16.23Z" fill="#0e0000"/><rect class="cls-1" x="9.45" y="7.88" width="78.13" height="3.15" fill="#0e0000"/><path class="cls-1" d="m52.41,100.17v-3.92l-1.24,3.92h1.24Z" fill="#0e0000"/><path class="cls-1" d="m0,0v97.31h35.64v15.43l12.87-3.15,12.87,3.15v-15.43h35.64V0H0Zm47.93,95.84h0c-.06.73-.36,1.41-.87,1.94l-2.97,3.35c-.26.34-.38.76-.35,1.19h3.77v2.54h-7.02v-2.93c-.07-.74.21-1.47.76-1.96.09-.1,3.29-3.77,3.29-3.77.13-.16.2-.35.22-.56v-1.83c0-.24-.2-.43-.44-.42-.01,0-.03,0-.04,0-.24,0-.5.08-.5.42v2.33h-3.2v-2.14c0-.92.42-1.79,1.15-2.37.73-.59,1.65-.87,2.58-.81.93-.07,1.85.22,2.58.81.68.56,1.06,1.41,1.04,2.29v1.91Zm8.61,6.74h-1.25v2.29h-2.88v-2.29h-3.7v-1.58l3.55-9.99h3.03v9.16h1.26v2.4Zm37.34-8.41h-32.49v-7.87h-25.74v7.88H3.15V3.15h90.73v91.01Z" fill="#0e0000"/><rect class="cls-1" x="9.45" y="86.29" width="19.89" height="3.15" fill="#0e0000"/><rect class="cls-1" x="67.69" y="86.29" width="19.9" height="3.15" fill="#0e0000"/></g></svg>